<svg width="18" height="26" viewBox="0 0 18 26" fill="none" xmlns="http://www.w3.org/2000/svg">
<path d="M17.2907 13.6403C16.6287 12.8065 15.7016 12.2371 14.6712 12.0315C15.3834 11.6706 15.9605 11.081 16.3144 10.3529C16.6683 9.62482 16.7795 8.79819 16.631 7.99933C16.5885 7.36757 16.4013 6.75489 16.0847 6.21075C15.7794 5.70475 15.3545 5.28559 14.849 4.992C14.3183 4.6798 13.7483 4.44325 13.1549 4.28892C12.4669 4.11412 11.7661 3.99674 11.0595 3.93792V0H8.75764V3.8285C8.35811 3.8285 7.74928 3.83897 6.93117 3.85992V0H4.62611V3.93792C4.29646 3.94803 3.81257 3.95344 3.17446 3.95417L-0.00201416 3.93792V6.5H1.65928C1.81494 6.48029 1.97288 6.49215 2.12407 6.53489C2.27525 6.57763 2.41673 6.65042 2.54042 6.74911C2.6641 6.8478 2.76758 6.97044 2.84494 7.11005C2.9223 7.24965 2.97203 7.40348 2.99128 7.56275V12.0478C3.07135 12.0466 3.15137 12.052 3.23058 12.064H2.99128V18.3473C2.98818 18.4589 2.96292 18.5687 2.91705 18.6701C2.87117 18.7714 2.80563 18.8621 2.72441 18.9367C2.6432 19.0112 2.54801 19.0681 2.44463 19.1039C2.34124 19.1397 2.23183 19.1535 2.12305 19.1447H0.463871L0.000102324 22.0047H2.99446C3.18434 22.0047 3.45893 22.0072 3.81822 22.0123C4.17752 22.0173 4.44681 22.0198 4.62611 22.0198V26H6.93223V22.0621C7.35152 22.0729 7.96034 22.0783 8.75869 22.0783V26H11.0638V22.0155C11.7938 21.9839 12.5212 21.9057 13.2418 21.7815C13.8655 21.669 14.4755 21.4874 15.0608 21.2398C15.5933 21.0243 16.0846 20.7149 16.5125 20.3255C16.9217 19.9323 17.25 19.4594 17.4781 18.9345C17.7461 18.3171 17.9104 17.6578 17.9641 16.9845C18.1571 15.8228 17.9167 14.6293 17.2907 13.6403ZM6.9767 6.67117L7.56858 6.66358L8.37752 6.64733C8.66739 6.64529 8.95717 6.6583 9.24575 6.68633C9.55453 6.70985 9.86174 6.75144 10.1659 6.81092C10.4471 6.87271 10.7227 6.95897 10.9896 7.06875C11.2539 7.16548 11.4978 7.31251 11.7086 7.50208C11.8995 7.6898 12.0543 7.91249 12.1649 8.15858C12.2943 8.44491 12.3583 8.75755 12.3523 9.07292C12.3558 9.34489 12.3102 9.61518 12.2179 9.87025C12.1334 10.1016 11.9945 10.3081 11.8134 10.4715C11.6407 10.6276 11.4555 10.7686 11.2596 10.8929C11.0337 11.0275 10.7887 11.1251 10.5333 11.1822C10.2389 11.2544 9.98199 11.3118 9.76246 11.3544C9.49004 11.4017 9.21484 11.4303 8.93869 11.44C8.60905 11.4559 8.35952 11.4664 8.1901 11.4714C8.02069 11.4765 7.78846 11.4765 7.4934 11.4714L6.9767 11.4638V6.67117ZM13.2725 17.3117C13.1847 17.5392 13.0609 17.7504 12.9061 17.9368C12.738 18.128 12.5375 18.2866 12.3142 18.4048C12.086 18.5317 11.8484 18.6404 11.6037 18.7297C11.3325 18.8235 11.0546 18.8959 10.7726 18.9464C10.4479 19.0093 10.1634 19.0537 9.91917 19.0797C9.67493 19.1057 9.38304 19.1266 9.04352 19.1425C8.70399 19.1577 8.43963 19.1653 8.25046 19.1653C8.06128 19.1653 7.81952 19.1649 7.52516 19.1642L6.9714 19.1566V13.8743C7.05116 13.8743 7.28834 13.8692 7.68293 13.8591C8.07752 13.849 8.3994 13.8439 8.64857 13.8439C8.89775 13.8439 9.24223 13.8594 9.68199 13.8905C10.0537 13.9127 10.4237 13.9594 10.7895 14.0303C11.1226 14.1027 11.4503 14.1994 11.77 14.3195C12.0818 14.426 12.3732 14.5873 12.6308 14.7962C12.86 14.9962 13.0482 15.2407 13.1846 15.5155C13.3171 15.7936 13.3927 16.0964 13.4069 16.4054C13.4211 16.7144 13.3736 17.0232 13.2672 17.3127L13.2725 17.3117Z" fill="#69F0AE"/>
</svg>
