<svg width="208" height="165" viewBox="0 0 208 165" fill="none" xmlns="http://www.w3.org/2000/svg">
<path opacity="0.5" fill-rule="evenodd" clip-rule="evenodd" d="M0 112.996C0.65 113.14 1.3 113.284 1.95 113.428C3.25 109.687 4.55 106.091 5.92222 102.207C7.00556 103.933 7.87222 105.372 8.81111 106.81C9.17222 107.386 9.53333 107.961 9.67778 108.537C10.4722 111.629 11.1222 114.794 11.8444 117.959C12.35 120.117 12.8556 122.203 13.4333 124.576C14.8056 123.21 15.9611 122.059 17.2611 120.764C18.5611 122.994 19.7889 125.152 21.0167 127.31C23.2556 126.518 25.6389 125.943 25.8556 123.713C25.9278 123.21 26.2889 122.706 26.5056 122.203C27.3722 120.045 28.6 117.887 29.1056 115.657C30.2611 110.335 31.2722 105.012 32.0667 99.6896C32.5 96.8126 33.5111 94.2951 36.1833 92.2093C36.4722 91.9935 36.6889 91.6338 36.8333 91.2742C37.3389 89.6918 37.8444 88.0375 38.2778 86.3832C38.9278 84.2254 39.5778 82.1395 40.2278 79.9817C40.3 79.9817 40.3722 79.9817 40.5167 79.9817C41.7444 85.3762 42.9 90.7707 44.1278 96.3091C44.4889 95.9494 44.7056 95.7337 44.85 95.5179C45.7889 94.3671 46.7278 93.2882 47.5222 92.1373C48.1 91.2742 48.75 91.1303 49.8333 91.49C50.5556 91.7058 51.35 91.8496 52.1444 91.9935C53.4444 89.1883 54.6722 86.4551 55.9 83.7219C56.3333 82.643 56.55 81.5641 56.8389 80.4852C58.4278 74.3714 59.9444 68.2576 63.2667 62.5035C63.4111 62.2158 63.6278 61.8562 63.9167 61.7123C65 61.3527 66.0833 61.065 67.2389 60.7773C68.6111 63.2947 69.9111 65.6683 71.2833 68.1138C72.5833 67.3945 73.6667 66.6752 74.8944 66.1718C76.1222 65.5963 77.4944 65.1648 78.8667 64.5894C80.1667 65.956 81.3944 67.2507 82.7667 68.6892C83.7778 66.6752 84.6444 64.8771 85.5833 63.007C86.5944 60.9211 86.5944 60.9211 89.6278 60.993C90.2778 60.993 90.6389 60.8492 90.9278 60.4176C91.5778 59.4826 92.4444 58.5475 93.0222 57.6125C93.8889 56.1739 95.1889 55.3827 97.2111 54.9512C97.9333 54.8073 98.3667 54.8073 98.8722 55.2389C99.8833 56.0301 100.894 56.7494 102.05 57.6125C102.628 56.0301 103.133 54.5916 103.639 53.153C104.867 49.7725 105.733 46.2481 108.983 43.4429C109.561 42.9394 110.139 42.2921 110.933 41.9324C113.172 40.8535 114.4 39.415 114.978 37.5449C115.411 36.1064 116.206 34.7398 116.856 33.3012C117 32.9416 117.217 32.51 117.433 32.1504C119.744 37.3291 121.839 42.4359 125.161 47.3989C126.1 47.255 127.111 46.9673 128.122 46.8954C128.483 46.8235 129.133 47.0392 129.35 47.255C130.361 48.3339 131.156 49.5567 132.311 50.5637C133.611 51.7145 135.2 52.5776 136.861 53.7284C137.006 53.3688 137.006 53.2249 137.078 53.153C138.233 48.7655 139.461 44.378 140.617 40.0623C140.761 39.5589 141.05 39.2712 141.7 39.1992C143.578 38.9115 145.456 38.6238 147.406 38.48C148.128 38.408 148.561 38.2642 148.706 37.6888C148.922 36.8256 149.283 35.9625 149.572 35.0275C151.017 30.9996 151.883 26.8997 154.7 23.1596C155.856 21.5772 157.083 20.2106 159.467 19.4913C159.9 19.3474 160.261 18.9878 160.406 18.6282C161.561 16.1107 162.572 13.6652 163.656 11.1478C163.872 10.7162 164.089 10.4285 164.883 10.3566C167.05 10.2127 169 9.5654 170.878 8.77421C171.311 8.55843 171.744 8.27072 171.961 7.98301C173.044 6.40062 174.128 4.74631 175.283 2.94814C175.5 3.3797 175.644 3.59548 175.789 3.88319C176.872 6.04099 177.883 8.19879 178.967 10.3566C179.111 10.6443 179.544 10.932 179.978 11.0039C182.144 11.3636 184.311 11.2916 186.406 10.8601C186.767 10.7882 187.128 10.5005 187.272 10.2847C187.994 8.98999 188.717 7.62338 189.439 6.3287C189.944 5.46558 190.378 4.53053 190.883 3.66741C191.822 3.81126 192.689 3.95511 193.556 4.17089C194.35 4.38667 194.856 4.24282 195.289 3.66741C196.3 2.44465 197.383 1.2219 198.539 -0.0727844C198.683 0.286849 198.756 0.50263 198.828 0.646483C199.911 3.73933 200.994 6.76026 202.15 9.85311C202.222 10.0689 202.222 10.3566 202.439 10.4285C203.739 10.8601 204.967 11.2197 206.339 11.6513C206.989 9.78118 207.567 7.98301 208.144 6.11292V164.855H0V112.996Z" fill="#69F0AE" fill-opacity="0.15"/>
</svg>
