<?xml version="1.0" standalone="no"?>
<!DOCTYPE svg PUBLIC "-//W3C//DTD SVG 20010904//EN"
 "http://www.w3.org/TR/2001/REC-SVG-20010904/DTD/svg10.dtd">
<svg version="1.0" xmlns="http://www.w3.org/2000/svg"
 width="729.000000pt" height="342.000000pt" viewBox="0 0 729.000000 342.000000"
 preserveAspectRatio="xMidYMid meet">

<g transform="translate(0.000000,342.000000) scale(0.100000,-0.100000)"
fill="#000000" stroke="none">
<path d="M5617 3082 c-21 -75 -69 -247 -107 -382 -38 -135 -78 -281 -90 -325
-12 -44 -25 -91 -30 -105 -5 -14 -23 -77 -40 -140 -18 -63 -35 -118 -38 -122
-8 -7 -293 -19 -1002 -43 -250 -9 -471 -18 -490 -20 -19 -2 -62 -5 -95 -6 -75
-3 163 -18 780 -49 105 -5 314 -16 465 -24 151 -8 323 -17 381 -19 l105 -5 79
242 78 241 15 -35 c13 -32 34 -89 116 -320 15 -41 34 -94 42 -117 l16 -43 254
0 c140 0 254 -4 254 -8 0 -5 -10 -17 -22 -28 -169 -149 -222 -196 -271 -244
l-59 -56 115 -342 c62 -188 110 -342 106 -342 -4 0 -50 25 -103 55 -52 30
-106 60 -118 65 -13 6 -41 21 -63 33 -100 57 -219 119 -210 109 6 -6 28 -26
51 -44 70 -56 278 -232 289 -244 6 -6 64 -55 129 -110 66 -54 162 -134 213
-177 51 -42 93 -74 93 -71 0 6 -6 29 -74 269 -24 88 -65 237 -91 330 -25 94
-50 181 -55 195 -8 23 -40 147 -40 155 0 5 216 155 540 376 80 54 177 120 215
147 39 26 105 72 148 101 42 28 77 55 77 58 0 3 -246 4 -547 2 l-547 -4 -28
75 c-15 41 -43 120 -63 175 -19 55 -47 132 -61 170 -14 39 -32 90 -40 115 -8
25 -18 54 -23 65 -5 11 -39 106 -76 210 -36 105 -73 206 -80 225 -8 19 -19 51
-25 70 -29 93 -33 91 -73 -58z"/>
<path d="M3445 1414 c-44 -86 -81 -160 -83 -165 -2 -5 14 -9 35 -9 37 0 40 2
68 58 16 31 36 70 46 85 l17 29 43 -86 c43 -85 44 -86 81 -86 21 0 38 2 38 6
0 5 -144 290 -158 311 -5 8 -37 -44 -87 -143z"/>
<path d="M311 1529 c-76 -54 -92 -151 -38 -223 40 -52 81 -66 191 -66 l96 0 0
90 0 90 -86 0 -85 0 3 -32 c3 -32 5 -33 51 -36 39 -3 47 -6 47 -23 0 -16 -7
-19 -50 -19 -63 0 -103 20 -119 58 -16 37 -5 77 26 102 22 17 41 20 119 20
l94 0 0 35 0 35 -103 0 c-100 0 -106 -1 -146 -31z"/>
<path d="M590 1400 l0 -160 35 0 35 0 0 70 0 70 35 0 c36 0 45 -10 97 -105 14
-24 24 -31 57 -33 l39 -3 -36 72 c-24 49 -32 74 -24 77 55 18 68 106 22 152
-18 18 -34 20 -140 20 l-120 0 0 -160z m220 70 c0 -18 -7 -20 -75 -20 -68 0
-75 2 -75 20 0 18 7 20 75 20 68 0 75 -2 75 -20z"/>
<path d="M910 1460 c0 -115 10 -144 67 -187 30 -23 46 -28 93 -28 47 0 63 5
94 29 53 40 66 78 66 191 l0 95 -35 0 -35 0 0 -94 c0 -86 -2 -98 -24 -123 -34
-39 -98 -39 -132 0 -22 25 -24 37 -24 123 l0 94 -35 0 -35 0 0 -100z"/>
<path d="M1260 1400 l0 -160 35 0 35 0 0 70 0 70 79 0 c71 0 83 3 110 26 l31
26 0 -31 c0 -49 24 -96 66 -127 50 -39 132 -41 182 -6 47 34 75 95 69 150 -18
163 -242 194 -309 42 -4 -10 -7 -4 -7 15 -1 18 -12 42 -26 58 -25 27 -28 27
-145 27 l-120 0 0 -160z m215 70 c0 -12 -16 -16 -72 -18 -68 -3 -73 -2 -73 18
0 20 5 21 73 18 56 -2 72 -6 72 -18z m296 -9 c36 -36 37 -75 4 -116 -20 -24
-32 -30 -65 -30 -55 0 -85 31 -85 86 0 81 88 117 146 60z"/>
<path d="M2195 1550 c-50 -21 -95 -92 -95 -152 0 -41 34 -102 72 -130 29 -20
47 -23 141 -26 l107 -4 0 91 0 91 -86 0 -85 0 3 -32 c3 -32 5 -33 51 -36 40
-3 47 -6 47 -24 0 -19 -5 -20 -66 -16 -58 4 -70 8 -90 32 -33 38 -31 80 5 117
28 28 33 29 125 29 l96 0 0 35 0 35 -102 -1 c-57 0 -112 -4 -123 -9z"/>
<path d="M2450 1434 l0 -126 34 -34 34 -34 101 0 101 0 0 35 0 35 -88 0 c-55
0 -92 4 -100 12 -8 8 -12 50 -12 125 l0 113 -35 0 -35 0 0 -126z"/>
<path d="M2779 1536 c-74 -50 -96 -125 -59 -200 28 -58 69 -88 130 -94 125
-12 209 122 150 237 -40 80 -147 107 -221 57z m143 -73 c54 -52 28 -134 -49
-149 -25 -5 -36 -1 -61 23 -44 40 -47 89 -7 128 33 34 80 33 117 -2z"/>
<path d="M3040 1400 l0 -160 121 0 c104 0 126 3 154 20 47 29 61 103 28 150
-10 15 -16 39 -14 62 2 29 -3 43 -23 63 -24 24 -30 25 -146 25 l-120 0 0 -160z
m218 73 c-3 -15 -16 -19 -76 -21 -67 -3 -72 -1 -72 18 0 18 6 20 76 20 66 0
75 -2 72 -17z m16 -99 c19 -7 21 -35 4 -52 -7 -7 -43 -12 -90 -12 l-78 0 0 35
0 35 74 0 c41 0 81 -3 90 -6z"/>
<path d="M3690 1434 l0 -126 34 -34 34 -34 101 0 101 0 0 35 0 35 -88 0 c-55
0 -92 4 -100 12 -8 8 -12 50 -12 125 l0 113 -35 0 -35 0 0 -126z"/>
<path d="M4242 1553 c-29 -11 -42 -62 -42 -158 0 -93 1 -98 29 -126 l29 -29
131 0 131 0 0 35 0 34 -122 3 -123 3 -3 32 -3 32 98 3 c105 3 101 0 94 58 -1
6 -40 10 -97 10 -86 0 -95 2 -92 18 3 15 18 17 126 20 l122 3 0 34 0 35 -132
-1 c-73 0 -139 -3 -146 -6z"/>
<path d="M4550 1434 l0 -126 34 -34 34 -34 101 0 101 0 0 35 0 35 -88 0 c-55
0 -92 4 -100 12 -8 8 -12 50 -12 125 l0 113 -35 0 -35 0 0 -126z"/>
<path d="M4840 1400 l0 -160 35 0 35 0 0 160 0 160 -35 0 -35 0 0 -160z"/>
<path d="M4940 1525 l0 -35 65 0 65 0 0 -125 0 -125 35 0 35 0 0 125 0 125 65
0 65 0 0 35 0 35 -165 0 -165 0 0 -35z"/>
<path d="M5316 1529 c-24 -28 -26 -38 -26 -131 0 -97 1 -100 29 -129 l29 -29
131 0 131 0 0 35 0 34 -122 3 -123 3 -3 33 -3 32 100 0 101 0 0 35 0 35 -101
0 c-90 0 -100 2 -97 18 3 15 18 17 126 20 l122 3 0 34 0 35 -134 0 -134 0 -26
-31z"/>
</g>
</svg>
