<svg width="175" height="42" viewBox="0 0 175 42" fill="none" xmlns="http://www.w3.org/2000/svg">
<path d="M50.6067 26.5828V15.2026H53.3194V19.9424L59.7205 15.2026H63.6112L55.9608 20.5642L64.5511 26.5828H60.2321L53.3194 21.5732V26.5828H50.6067Z" fill="white"/>
<path d="M68.3823 26.5828V15.1909H78.2814C80.0185 15.1909 80.8752 15.93 80.8752 17.3965C80.9585 20.9748 81.2321 22.6173 76.7585 22.2771L82.0888 26.5828H78.2338L73.5817 22.2888H71.0237V26.5945H68.3823V26.5828ZM77.0678 17.1384H71.0237V20.3413H77.0678C77.8769 20.3296 78.2576 20.2474 78.2814 19.4262C78.2457 18.4876 78.6146 16.892 77.0678 17.1384Z" fill="white"/>
<path d="M89.0253 15.1909H86.3363V26.5828H89.0253V15.1909Z" fill="white"/>
<path d="M94.9385 26.5828V15.1909H104.838C106.563 15.1909 107.431 15.93 107.431 17.3965C107.419 19.3792 107.967 22.3592 104.838 22.148H97.5798V26.5828H94.9385ZM103.624 17.1384H97.5798V20.2122H103.624C104.433 20.2005 104.814 20.1184 104.838 19.2971C104.814 18.3468 105.111 16.9155 103.624 17.1384Z" fill="white"/>
<path d="M116.938 17.2323V26.5828H114.261V17.2323H108.954V15.2026H122.268V17.2323H116.938Z" fill="white"/>
<path d="M123.791 26.5828L129.276 20.7402L123.708 15.2026H127.265L130.954 19.0625L134.476 15.2026H137.557L132.524 20.4234L138.747 26.5828H135.094L130.87 22.1715L126.968 26.5828H123.791Z" fill="white"/>
<path d="M141.388 17.8893C141.424 15.6953 142.054 15.2378 144.256 15.1909C145.826 15.4255 153.893 14.6395 155.023 15.7423C156.165 16.6809 155.428 22.5 155.63 23.8844C155.594 26.0783 154.964 26.5359 152.763 26.5828C151.192 26.3482 143.125 27.1342 141.995 26.0314C140.853 25.0928 141.59 19.2854 141.388 17.8893ZM144.077 24.4475H152.941V17.2323H144.077V24.4475Z" fill="white"/>
<path d="M161.294 26.5828V15.1909H171.193C172.93 15.1909 173.786 15.93 173.786 17.3965C173.87 20.9748 174.143 22.6173 169.67 22.2771L175 26.5828H171.145L166.493 22.2771H163.947V26.5828H161.294ZM169.979 17.1384H163.935V20.3413H169.979C170.788 20.3295 171.169 20.2474 171.193 19.4262C171.157 18.4876 171.526 16.892 169.979 17.1384Z" fill="white"/>
<path d="M34.9212 2.04739L16.7441 19.0996L24.8865 16.6596L42.6335 0L34.9212 2.04739Z" fill="white"/>
<path d="M24.6285 24.5686L40.6839 41.7891L33.8603 40.3027L16.7441 21.9884L24.6285 24.5686Z" fill="white"/>
<path d="M11.7555 26.2234L21.0447 33.5996L6.96753 27.4574L14.4792 15.9023L11.7555 26.2234Z" fill="white"/>
<path d="M9.14647 11.7795L0.0292969 4.43134L13.8771 10.5735L6.36545 21.9323L9.14647 11.7795Z" fill="white"/>
</svg>
