<?xml version="1.0" standalone="no"?>
<!DOCTYPE svg PUBLIC "-//W3C//DTD SVG 20010904//EN"
 "http://www.w3.org/TR/2001/REC-SVG-20010904/DTD/svg10.dtd">
<svg version="1.0" xmlns="http://www.w3.org/2000/svg"
 width="960.000000pt" height="540.000000pt" viewBox="0 0 960.000000 540.000000"
 preserveAspectRatio="xMidYMid meet">

<g transform="translate(0.000000,540.000000) scale(0.100000,-0.100000)"
fill="#000000" stroke="none">
<path d="M7076 4529 c-3 -8 -93 -324 -201 -704 -108 -379 -198 -697 -201 -706
-4 -14 -30 -17 -182 -23 -188 -7 -808 -29 -1282 -46 -409 -14 -572 -22 -568
-26 4 -3 297 -20 968 -54 217 -11 581 -29 808 -41 233 -12 417 -18 422 -13 4
5 47 128 96 274 48 146 90 269 94 273 4 4 44 -95 90 -220 46 -125 95 -259 110
-298 l26 -70 307 -3 c169 -1 307 -6 306 -10 0 -4 -94 -89 -210 -190 -115 -101
-209 -190 -209 -198 0 -8 61 -191 135 -406 74 -216 133 -394 131 -396 -2 -1
-125 62 -272 141 -148 79 -285 152 -304 162 l-35 17 25 -25 c37 -38 923 -768
927 -764 1 2 -69 257 -158 567 -130 458 -158 565 -147 575 11 11 225 155 971
654 108 73 197 135 197 139 0 4 -297 6 -660 4 -363 -2 -660 -1 -660 1 0 3 -75
209 -166 458 -91 250 -204 560 -251 689 -47 129 -89 239 -94 244 -5 6 -10 4
-13 -5z"/>
<path d="M4410 2408 c-52 -101 -96 -189 -98 -195 -2 -9 11 -13 45 -13 l48 0
50 95 c27 52 52 95 55 95 3 0 28 -43 55 -95 l50 -95 48 0 c26 0 47 3 47 6 0
11 -195 384 -200 384 -3 0 -48 -82 -100 -182z"/>
<path d="M655 2566 c-38 -17 -90 -72 -104 -109 -27 -70 -7 -150 50 -204 49
-46 77 -53 210 -53 l119 0 0 110 0 111 -102 -3 -103 -3 0 -40 0 -40 58 -3 c49
-3 57 -6 57 -22 0 -18 -7 -20 -65 -20 -75 0 -116 17 -133 55 -22 48 -11 93 32
127 17 14 42 18 139 18 l117 0 0 45 0 45 -122 0 c-81 -1 -133 -5 -153 -14z"/>
<path d="M960 2390 l0 -190 45 0 45 0 0 80 0 80 45 0 44 0 43 -80 43 -80 48 0
c26 0 47 2 47 5 0 2 -17 38 -37 79 l-37 75 31 28 c16 16 34 39 38 52 12 38 -3
88 -36 115 -30 25 -35 26 -175 26 l-144 0 0 -190z m265 80 c0 -12 -16 -15 -85
-15 -73 0 -85 2 -88 18 -3 16 4 18 85 15 70 -2 88 -6 88 -18z"/>
<path d="M1350 2457 c0 -119 1 -125 29 -169 40 -63 101 -92 181 -86 69 5 120
39 157 104 20 34 23 53 23 157 l0 117 -45 0 -45 0 0 -111 0 -111 -34 -34 c-46
-46 -104 -48 -147 -5 -29 29 -29 31 -29 145 l0 116 -45 0 -45 0 0 -123z"/>
<path d="M1770 2390 l0 -190 45 0 45 0 0 80 0 80 84 0 c94 0 124 8 155 41 l21
23 0 -38 c0 -97 93 -186 196 -186 243 0 261 358 20 378 -73 6 -117 -11 -165
-63 l-40 -43 -11 34 c-22 66 -45 74 -206 74 l-144 0 0 -190z m258 83 c-3 -15
-16 -18 -86 -21 -77 -3 -82 -2 -82 18 0 19 6 20 86 20 76 0 85 -2 82 -17z
m355 -3 c49 -39 45 -130 -9 -165 -41 -27 -92 -19 -130 19 -37 37 -43 73 -20
115 29 52 112 68 159 31z"/>
<path d="M2911 2569 c-76 -30 -121 -96 -121 -179 0 -66 29 -123 82 -157 39
-26 49 -28 175 -31 l133 -4 0 111 0 111 -106 0 -105 0 3 -42 3 -43 58 -3 c49
-3 57 -6 57 -22 0 -18 -7 -20 -74 -20 -68 0 -76 2 -105 29 -40 38 -43 96 -7
138 24 27 28 28 148 33 l123 5 3 43 3 42 -123 -1 c-68 0 -134 -5 -147 -10z"/>
<path d="M3210 2435 c0 -163 8 -190 64 -220 25 -13 55 -16 146 -13 l115 3 0
40 0 40 -115 5 -115 5 -5 140 -5 140 -42 3 -43 3 0 -146z"/>
<path d="M3619 2560 c-62 -33 -109 -106 -109 -170 0 -100 94 -190 200 -190
160 0 252 179 155 305 -54 72 -167 97 -246 55z m162 -99 c23 -23 29 -38 29
-71 0 -112 -152 -140 -195 -36 -18 42 -8 81 27 111 43 36 100 34 139 -4z"/>
<path d="M3920 2390 l0 -190 150 0 c165 0 193 7 225 57 24 36 24 103 0 140
-11 17 -19 47 -19 76 -1 42 -6 53 -34 78 l-32 29 -145 0 -145 0 0 -190z m266
89 c12 -20 -20 -29 -96 -27 -62 3 -75 6 -78 21 -3 15 6 17 82 17 51 0 88 -4
92 -11z m29 -154 l0 -30 -102 -3 -103 -3 0 36 0 36 103 -3 102 -3 0 -30z"/>
<path d="M4704 2565 c-3 -8 -4 -74 -2 -147 5 -199 24 -218 213 -218 l115 0 0
45 0 45 -110 0 c-109 0 -111 0 -120 26 -6 14 -10 79 -10 145 l0 119 -40 0
c-27 0 -43 -5 -46 -15z"/>
<path d="M5354 2546 l-34 -34 0 -122 0 -122 34 -34 34 -34 161 0 161 0 0 45 0
44 -147 3 -148 3 -3 32 -3 32 118 3 118 3 0 40 0 40 -117 3 c-109 2 -118 4
-118 22 0 18 9 20 148 22 l147 3 3 43 3 42 -161 0 -162 0 -34 -34z"/>
<path d="M5740 2438 c0 -216 20 -238 215 -238 l116 0 -3 43 -3 42 -104 3 c-58
1 -111 8 -118 14 -9 8 -13 46 -13 144 l0 134 -45 0 -45 0 0 -142z"/>
<path d="M6100 2390 l0 -190 45 0 45 0 0 190 0 190 -45 0 -45 0 0 -190z"/>
<path d="M6222 2538 l3 -43 73 -3 72 -3 0 -144 0 -145 45 0 45 0 0 145 0 144
73 3 72 3 3 43 3 42 -196 0 -196 0 3 -42z"/>
<path d="M6674 2546 l-34 -34 0 -122 0 -122 34 -34 34 -34 162 0 161 0 -3 43
-3 42 -145 5 -145 5 -3 32 -3 32 118 3 118 3 3 43 3 42 -120 0 c-114 0 -121 1
-121 20 0 18 8 20 148 22 l147 3 3 43 3 42 -161 0 -162 0 -34 -34z"/>
</g>
</svg>
