<svg width="24" height="24" viewBox="0 0 24 24" fill="none" xmlns="http://www.w3.org/2000/svg">
<rect x="2" y="2" width="20" height="20" rx="2" fill="#E2574C"/>
<path d="M16.8734 11.3723C17.1247 11.3723 17.2477 11.1533 17.2477 10.941C17.2477 10.7213 17.1194 10.509 16.8734 10.509H15.4424C15.1626 10.509 15.0066 10.7408 15.0066 10.9965V14.5133C15.0066 14.8268 15.1851 15.0008 15.4266 15.0008C15.6667 15.0008 15.8459 14.8268 15.8459 14.5133V13.548H16.7114C16.9799 13.548 17.1142 13.3283 17.1142 13.11C17.1142 12.8963 16.9799 12.684 16.7114 12.684H15.8459V11.3723H16.8734ZM12.0366 10.509H10.9896C10.7053 10.509 10.5036 10.704 10.5036 10.9935V14.5163C10.5036 14.8755 10.7938 14.988 11.0016 14.988H12.1003C13.4008 14.988 14.2596 14.1323 14.2596 12.8115C14.2589 11.415 13.4504 10.509 12.0366 10.509ZM12.0869 14.1196H11.4486V11.3776H12.0239C12.8947 11.3776 13.2734 11.9618 13.2734 12.7681C13.2734 13.5226 12.9014 14.1196 12.0869 14.1196ZM8.25139 10.509H7.21415C6.92089 10.509 6.75739 10.7025 6.75739 10.9965V14.5133C6.75739 14.8268 6.94487 15.0008 7.19685 15.0008C7.44883 15.0008 7.63631 14.8268 7.63631 14.5133V13.4865H8.28655C9.08904 13.4865 9.7513 12.918 9.7513 12.0037C9.75138 11.1091 9.1124 10.509 8.25139 10.509ZM8.23417 12.6616H7.63639V11.3348H8.23417C8.60317 11.3348 8.83792 11.6228 8.83792 11.9985C8.83714 12.3736 8.60317 12.6616 8.23417 12.6616Z" fill="white"/>
</svg>
