<svg width="85" height="85" viewBox="0 0 85 85" fill="none" xmlns="http://www.w3.org/2000/svg">
<circle cx="42.5" cy="42.5" r="42.5" fill="black"/>
<path d="M43.2718 23.5C32.3049 23.3519 23.3518 32.305 23.4999 43.2719C23.6461 53.7897 32.2102 62.3537 42.728 62.5C53.6968 62.65 62.648 53.6969 62.498 42.73C62.3536 32.2103 53.7896 23.6462 43.2718 23.5ZM55.1236 54.1797C55.0863 54.2201 55.0405 54.2517 54.9896 54.2724C54.9386 54.2932 54.8837 54.3024 54.8288 54.2996C54.7739 54.2967 54.7202 54.2818 54.6717 54.2559C54.6232 54.23 54.581 54.1937 54.548 54.1497C53.7095 53.0526 52.6825 52.1133 51.5152 51.3756C49.1283 49.8437 46.104 49 42.9999 49C39.8958 49 36.8715 49.8437 34.4846 51.3756C33.3173 52.1129 32.2904 53.0519 31.4518 54.1487C31.4188 54.1928 31.3766 54.229 31.3281 54.2549C31.2795 54.2808 31.2259 54.2958 31.171 54.2986C31.1161 54.3015 31.0612 54.2922 31.0102 54.2715C30.9593 54.2508 30.9135 54.2191 30.8761 54.1787C28.1252 51.2091 26.5669 47.3287 26.4999 43.2812C26.3471 34.1584 33.833 26.5225 42.9596 26.5C52.0861 26.4775 59.4999 33.8884 59.4999 43C59.503 47.1451 57.9399 51.1383 55.1236 54.1797Z" fill="white"/>
<path d="M43 32.5C41.1512 32.5 39.4797 33.1928 38.2919 34.4519C37.104 35.7109 36.5106 37.4519 36.6447 39.3203C36.9165 43 39.7675 46 43 46C46.2325 46 49.0778 43 49.3553 39.3212C49.494 37.4706 48.9053 35.7456 47.6978 34.4631C46.5053 33.1975 44.8365 32.5 43 32.5Z" fill="white"/>
</svg>
