<svg width="51" height="24" viewBox="0 0 51 24" fill="none" xmlns="http://www.w3.org/2000/svg">
<path d="M34.8424 6.75V17.33C34.8424 19.42 31.69 21.28 27.4043 21.48C22.48 21.71 18.3592 19.84 18.3592 17.5V5.14C18.3592 3.83 20.2959 2.64 22.9745 2.51C26.0651 2.36 28.6612 3.53 28.6612 5V15.5C28.6612 16.05 27.734 16.5 26.6008 16.5C25.4675 16.5 24.5404 16.05 24.5404 15.5V6.75C24.5404 6.34 23.8398 6 22.9951 6C22.1503 6 21.4498 6.34 21.4498 6.75V15.36C21.4498 16.67 23.3865 17.86 26.0651 17.99C29.1557 18.14 31.7518 16.97 31.7518 15.5V5.17C31.7518 3.08 28.5994 1.22 24.3137 1.02C19.41 0.790001 15.2686 2.66 15.2686 5V17.27C15.2686 20.14 19.5954 22.71 25.4882 22.98C32.2669 23.28 37.933 20.72 37.933 17.5V6.75C37.933 6.34 37.2324 6 36.3877 6C35.5429 6 34.8424 6.34 34.8424 6.75Z" fill="black"/>
</svg>
