<svg width="12" height="12" viewBox="0 0 12 12" fill="none" xmlns="http://www.w3.org/2000/svg">
<path d="M7.3291 3.33822H8.66364V4.6735C8.66364 5.04071 8.96391 5.34115 9.33091 5.34115C9.69791 5.34115 9.99818 5.04071 9.99818 4.6735V3.33822H11.3327C11.6997 3.33822 12 3.03778 12 2.67057C12 2.30337 11.6997 2.00293 11.3327 2.00293H9.99818V0.667643C9.99818 0.300439 9.69791 0 9.33091 0C8.96391 0 8.66364 0.300439 8.66364 0.667643V2.00293H7.3291C6.9621 2.00293 6.66182 2.30337 6.66182 2.67057C6.66182 3.03778 6.9621 3.33822 7.3291 3.33822ZM10.8056 8.19198L9.11071 7.99836C8.70368 7.95163 8.30331 8.09184 8.01639 8.37892L6.78861 9.60738C4.90023 8.64598 3.35216 7.10372 2.39128 5.20762L3.62574 3.97248C3.91266 3.68539 4.05279 3.27813 4.00608 2.87754L3.81257 1.19508C3.73917 0.520762 3.16532 0.00667643 2.49138 0.00667643H1.337C0.582978 0.00667643 -0.0442578 0.634261 0.00245121 1.3887C0.356105 7.09037 4.91357 11.6437 10.6054 11.9975C11.3594 12.0443 11.9867 11.4167 11.9867 10.6623V9.50724C11.9933 8.8396 11.4795 8.26542 10.8056 8.19198Z" fill="#304FFE"/>
</svg>
