<svg width="20" height="20" viewBox="0 0 20 20" fill="none" xmlns="http://www.w3.org/2000/svg">
<circle cx="9.72656" cy="9.72656" r="9.72656" fill="black"/>
<path d="M10.8073 7.5651H11.888V8.64583C11.888 8.94303 12.1312 9.1862 12.4284 9.1862C12.7256 9.1862 12.9687 8.94303 12.9687 8.64583V7.5651H14.0494C14.3466 7.5651 14.5898 7.32194 14.5898 7.02474C14.5898 6.72754 14.3466 6.48438 14.0494 6.48438H12.9687V5.40365C12.9687 5.10645 12.7256 4.86328 12.4284 4.86328C12.1312 4.86328 11.888 5.10645 11.888 5.40365V6.48438H10.8073C10.5101 6.48438 10.2669 6.72754 10.2669 7.02474C10.2669 7.32194 10.5101 7.5651 10.8073 7.5651ZM13.6226 11.4936L12.25 11.3368C11.9204 11.299 11.5962 11.4125 11.3638 11.6449L10.3696 12.6391C8.84033 11.861 7.58669 10.6128 6.80856 9.07813L7.80824 8.07845C8.04059 7.84609 8.15407 7.51647 8.11624 7.19225L7.95954 5.83053C7.9001 5.28477 7.43538 4.86868 6.88962 4.86868H5.95478C5.34417 4.86868 4.83623 5.37663 4.87406 5.98724C5.16045 10.602 8.85114 14.2872 13.4605 14.5736C14.0711 14.6115 14.579 14.1035 14.579 13.4929V12.5581C14.5844 12.0177 14.1683 11.553 13.6226 11.4936Z" fill="#FFD600"/>
</svg>
