<svg width="19" height="19" viewBox="0 0 19 19" fill="none" xmlns="http://www.w3.org/2000/svg">
<path d="M4.72617 13.0009L8.27509 9.45615L4.73102 5.90795C4.57433 5.75107 4.48638 5.53838 4.48651 5.31666C4.48664 5.09494 4.57484 4.88235 4.73171 4.72566C4.88858 4.56897 5.10127 4.48102 5.32299 4.48115C5.54471 4.48128 5.7573 4.56948 5.91399 4.72635L9.45806 8.27456L13.0063 4.73049C13.1631 4.5738 13.3758 4.48585 13.5976 4.48598C13.8193 4.48611 14.0319 4.57431 14.1886 4.73118C14.3452 4.88805 14.4332 5.10074 14.4331 5.32247C14.4329 5.54419 14.3447 5.75677 14.1879 5.91346L10.6397 9.45753L14.1844 13.0065C14.3411 13.1633 14.4291 13.376 14.4289 13.5977C14.4288 13.8195 14.3406 14.032 14.1837 14.1887C14.0269 14.3454 13.8142 14.4334 13.5925 14.4332C13.3707 14.4331 13.1581 14.3449 13.0015 14.188L9.45668 10.6391L5.90777 14.1839C5.7509 14.3406 5.5382 14.4285 5.31648 14.4284C5.09476 14.4283 4.88217 14.3401 4.72548 14.1832C4.5688 14.0263 4.48084 13.8137 4.48097 13.5919C4.4811 13.3702 4.5693 13.1576 4.72617 13.0009Z" fill="#616161"/>
</svg>
