<svg width="36" height="39" viewBox="0 0 36 39" fill="none" xmlns="http://www.w3.org/2000/svg">
<g filter="url(#filter0_d)">
<circle cx="18" cy="17" r="17" fill="white"/>
<circle cx="18" cy="17" r="16.5" stroke="#304FFE"/>
</g>
<path d="M13.1765 6C12.5212 6 11.8928 6.26029 11.4295 6.72362C10.9662 7.18694 10.7059 7.81535 10.7059 8.47059V17.1176H11.9412V8.47059C11.9412 8.14297 12.0713 7.82877 12.303 7.5971C12.5346 7.36544 12.8489 7.23529 13.1765 7.23529H21.8235C22.1511 7.23529 22.4654 7.36544 22.697 7.5971C22.9287 7.82877 23.0588 8.14297 23.0588 8.47059V22.0588H19.3529V23.2941H24.2941C25.277 23.2941 26.2196 22.9037 26.9146 22.2087C27.6096 21.5137 28 20.5711 28 19.5882V17.1176H24.2941V8.47059C24.2941 7.81535 24.0338 7.18694 23.5705 6.72362C23.1072 6.26029 22.4788 6 21.8235 6H13.1765ZM26.7647 19.5882C26.7647 20.2435 26.5044 20.8719 26.0411 21.3352C25.5778 21.7985 24.9494 22.0588 24.2941 22.0588V18.3529H26.7647V19.5882ZM15.0294 9.70588C14.8656 9.70588 14.7085 9.77096 14.5927 9.88679C14.4768 10.0026 14.4118 10.1597 14.4118 10.3235C14.4118 10.4873 14.4768 10.6444 14.5927 10.7603C14.7085 10.8761 14.8656 10.9412 15.0294 10.9412H19.9706C20.1344 10.9412 20.2915 10.8761 20.4073 10.7603C20.5232 10.6444 20.5882 10.4873 20.5882 10.3235C20.5882 10.1597 20.5232 10.0026 20.4073 9.88679C20.2915 9.77096 20.1344 9.70588 19.9706 9.70588H15.0294ZM14.4118 12.7941C14.4118 12.6303 14.4768 12.4732 14.5927 12.3574C14.7085 12.2415 14.8656 12.1765 15.0294 12.1765H19.9706C20.1344 12.1765 20.2915 12.2415 20.4073 12.3574C20.5232 12.4732 20.5882 12.6303 20.5882 12.7941C20.5882 12.9579 20.5232 13.115 20.4073 13.2309C20.2915 13.3467 20.1344 13.4118 19.9706 13.4118H15.0294C14.8656 13.4118 14.7085 13.3467 14.5927 13.2309C14.4768 13.115 14.4118 12.9579 14.4118 12.7941ZM16.2647 18.3529C16.7561 18.3529 17.2274 18.5482 17.5749 18.8957C17.9224 19.2431 18.1176 19.7145 18.1176 20.2059V23.9118C18.1176 24.4032 17.9224 24.8745 17.5749 25.222C17.2274 25.5695 16.7561 25.7647 16.2647 25.7647H8.85294C8.36151 25.7647 7.89021 25.5695 7.54271 25.222C7.19522 24.8745 7 24.4032 7 23.9118V20.2059C7 19.7145 7.19522 19.2431 7.54271 18.8957C7.89021 18.5482 8.36151 18.3529 8.85294 18.3529H16.2647ZM16.8824 23.9118V22.6765C16.3909 22.6765 15.9196 22.8717 15.5721 23.2192C15.2246 23.5667 15.0294 24.038 15.0294 24.5294H16.2647C16.2647 24.3656 16.3298 24.2085 16.4456 24.0927C16.5614 23.9768 16.7185 23.9118 16.8824 23.9118ZM16.8824 20.2059C16.7185 20.2059 16.5614 20.1408 16.4456 20.025C16.3298 19.9091 16.2647 19.752 16.2647 19.5882H15.0294C15.0294 20.0797 15.2246 20.551 15.5721 20.8985C15.9196 21.246 16.3909 21.4412 16.8824 21.4412V20.2059ZM8.85294 19.5882C8.85294 19.752 8.78787 19.9091 8.67204 20.025C8.55621 20.1408 8.3991 20.2059 8.23529 20.2059V21.4412C8.72672 21.4412 9.19803 21.246 9.54552 20.8985C9.89302 20.551 10.0882 20.0797 10.0882 19.5882H8.85294ZM8.23529 23.9118C8.3991 23.9118 8.55621 23.9768 8.67204 24.0927C8.78787 24.2085 8.85294 24.3656 8.85294 24.5294H10.0882C10.0882 24.038 9.89302 23.5667 9.54552 23.2192C9.19803 22.8717 8.72672 22.6765 8.23529 22.6765V23.9118ZM12.5588 20.2059C12.0674 20.2059 11.5961 20.4011 11.2486 20.7486C10.9011 21.0961 10.7059 21.5674 10.7059 22.0588C10.7059 22.5503 10.9011 23.0216 11.2486 23.369C11.5961 23.7165 12.0674 23.9118 12.5588 23.9118C13.0503 23.9118 13.5216 23.7165 13.8691 23.369C14.2165 23.0216 14.4118 22.5503 14.4118 22.0588C14.4118 21.5674 14.2165 21.0961 13.8691 20.7486C13.5216 20.4011 13.0503 20.2059 12.5588 20.2059Z" fill="#304FFE"/>
<defs>
<filter id="filter0_d" x="0" y="0" width="36" height="39" filterUnits="userSpaceOnUse" color-interpolation-filters="sRGB">
<feFlood flood-opacity="0" result="BackgroundImageFix"/>
<feColorMatrix in="SourceAlpha" type="matrix" values="0 0 0 0 0 0 0 0 0 0 0 0 0 0 0 0 0 0 127 0"/>
<feMorphology radius="3" operator="erode" in="SourceAlpha" result="effect1_dropShadow"/>
<feOffset dy="4"/>
<feGaussianBlur stdDeviation="2"/>
<feColorMatrix type="matrix" values="0 0 0 0 0 0 0 0 0 0 0 0 0 0 0 0 0 0 0.2 0"/>
<feBlend mode="normal" in2="BackgroundImageFix" result="effect1_dropShadow"/>
<feBlend mode="normal" in="SourceGraphic" in2="effect1_dropShadow" result="shape"/>
</filter>
</defs>
</svg>
