<svg width="36" height="39" viewBox="0 0 36 39" fill="none" xmlns="http://www.w3.org/2000/svg">
<g filter="url(#filter0_d)">
<circle cx="18" cy="17" r="17" fill="white"/>
<circle cx="18" cy="17" r="16.5" stroke="#304FFE"/>
</g>
<path fill-rule="evenodd" clip-rule="evenodd" d="M23 10H13C12.7348 10 12.4804 10.1054 12.2929 10.2929C12.1054 10.4804 12 10.7348 12 11V23C12 23.2652 12.1054 23.5196 12.2929 23.7071C12.4804 23.8946 12.7348 24 13 24H23C23.2652 24 23.5196 23.8946 23.7071 23.7071C23.8946 23.5196 24 23.2652 24 23V11C24 10.7348 23.8946 10.4804 23.7071 10.2929C23.5196 10.1054 23.2652 10 23 10ZM13 8C12.2044 8 11.4413 8.31607 10.8787 8.87868C10.3161 9.44129 10 10.2044 10 11V23C10 23.7956 10.3161 24.5587 10.8787 25.1213C11.4413 25.6839 12.2044 26 13 26H23C23.7956 26 24.5587 25.6839 25.1213 25.1213C25.6839 24.5587 26 23.7956 26 23V11C26 10.2044 25.6839 9.44129 25.1213 8.87868C24.5587 8.31607 23.7956 8 23 8H13Z" fill="#304FFE"/>
<path d="M14 12H22V14H14V12Z" fill="#304FFE"/>
<path d="M14 16H22V18H14V16Z" fill="#304FFE"/>
<path d="M14 20H19V22H14V20Z" fill="#304FFE"/>
<defs>
<filter id="filter0_d" x="0" y="0" width="36" height="39" filterUnits="userSpaceOnUse" color-interpolation-filters="sRGB">
<feFlood flood-opacity="0" result="BackgroundImageFix"/>
<feColorMatrix in="SourceAlpha" type="matrix" values="0 0 0 0 0 0 0 0 0 0 0 0 0 0 0 0 0 0 127 0"/>
<feMorphology radius="3" operator="erode" in="SourceAlpha" result="effect1_dropShadow"/>
<feOffset dy="4"/>
<feGaussianBlur stdDeviation="2"/>
<feColorMatrix type="matrix" values="0 0 0 0 0 0 0 0 0 0 0 0 0 0 0 0 0 0 0.2 0"/>
<feBlend mode="normal" in2="BackgroundImageFix" result="effect1_dropShadow"/>
<feBlend mode="normal" in="SourceGraphic" in2="effect1_dropShadow" result="shape"/>
</filter>
</defs>
</svg>
