<svg width="19" height="20" viewBox="0 0 19 20" fill="none" xmlns="http://www.w3.org/2000/svg">
<path d="M1.58333 2.375V8.0465C1.11983 8.21037 0.718603 8.51404 0.435005 8.91562C0.151407 9.31719 -0.000583691 9.79688 1.68454e-06 10.2885V16.6266C1.68454e-06 17.2565 0.250224 17.8606 0.695623 18.306C1.14102 18.7514 1.74511 19.0016 2.375 19.0016H16.625C17.2549 19.0016 17.859 18.7514 18.3044 18.306C18.7498 17.8606 19 17.2565 19 16.6266V10.2869C19.0003 9.79557 18.8481 9.31623 18.5645 8.91497C18.281 8.51371 17.8799 8.21028 17.4167 8.0465V5.40233C17.417 5.08975 17.3557 4.78017 17.2361 4.49135C17.1166 4.20252 16.9412 3.94014 16.72 3.71925L13.6863 0.695083C13.2411 0.250138 12.6375 0.000134395 12.008 0H3.95833C3.32845 0 2.72436 0.250222 2.27896 0.695621C1.83356 1.14102 1.58333 1.74511 1.58333 2.375ZM3.95833 1.58333H11.0833V3.95517C11.0833 4.58506 11.3336 5.18915 11.779 5.63455C12.2244 6.07994 12.8284 6.33017 13.4583 6.33017H15.8333V7.91192H3.16667V2.375C3.16667 2.16504 3.25008 1.96367 3.39854 1.81521C3.54701 1.66674 3.74837 1.58333 3.95833 1.58333ZM12.6667 1.91267L15.5072 4.74683H13.4583C13.2484 4.74683 13.047 4.66343 12.8985 4.51496C12.7501 4.36649 12.6667 4.16513 12.6667 3.95517V1.91267ZM2.375 9.49683H16.625C16.835 9.49683 17.0363 9.58024 17.1848 9.72871C17.3333 9.87717 17.4167 10.0785 17.4167 10.2885V16.6266C17.4167 16.8365 17.3333 17.0379 17.1848 17.1864C17.0363 17.3348 16.835 17.4183 16.625 17.4183H2.375C2.16504 17.4183 1.96368 17.3348 1.81521 17.1864C1.66674 17.0379 1.58333 16.8365 1.58333 16.6266V10.2869C1.58333 10.077 1.66674 9.87559 1.81521 9.72712C1.96368 9.57866 2.16504 9.49525 2.375 9.49525V9.49683Z" fill="#455A64"/>
</svg>
