<svg width="19" height="20" viewBox="0 0 19 20" fill="none" xmlns="http://www.w3.org/2000/svg">
<path d="M3.95817 11.0849C3.74821 11.0849 3.54684 11.1683 3.39838 11.3168C3.24991 11.4653 3.1665 11.6666 3.1665 11.8766V15.0433C3.1665 15.2532 3.24991 15.4546 3.39838 15.6031C3.54684 15.7515 3.74821 15.8349 3.95817 15.8349C4.16813 15.8349 4.3695 15.7515 4.51796 15.6031C4.66643 15.4546 4.74984 15.2532 4.74984 15.0433V14.7804H5.27709C5.76714 14.7804 6.23712 14.5858 6.58364 14.2392C6.93016 13.8927 7.12484 13.4227 7.12484 12.9327C7.12484 12.4426 6.93016 11.9726 6.58364 11.6261C6.23712 11.2796 5.76714 11.0849 5.27709 11.0849H3.95817ZM5.27709 13.1971H4.74984V12.6683H5.27709C5.34722 12.6683 5.41447 12.6961 5.46406 12.7457C5.51365 12.7953 5.5415 12.8626 5.5415 12.9327C5.5415 13.0028 5.51365 13.0701 5.46406 13.1197C5.41447 13.1692 5.34722 13.1971 5.27709 13.1971Z" fill="#455A64"/>
<path d="M12.6665 11.875C12.6669 11.6653 12.7505 11.4644 12.8989 11.3162C13.0474 11.1681 13.2485 11.0849 13.4582 11.0849H15.0399C15.2499 11.0849 15.4512 11.1683 15.5997 11.3168C15.7482 11.4653 15.8316 11.6666 15.8316 11.8766C15.8316 12.0866 15.7482 12.2879 15.5997 12.4364C15.4512 12.5849 15.2499 12.6683 15.0399 12.6683H14.2483V13.1987H15.0399C15.2499 13.1987 15.4512 13.2821 15.5997 13.4306C15.7482 13.579 15.8316 13.7804 15.8316 13.9903C15.8316 14.2003 15.7482 14.4017 15.5997 14.5501C15.4512 14.6986 15.2499 14.782 15.0399 14.782H14.2498V15.0417C14.25 15.1456 14.2298 15.2486 14.1902 15.3448C14.1506 15.4409 14.0924 15.5283 14.0191 15.6019C13.8709 15.7507 13.6697 15.8345 13.4598 15.8349C13.2498 15.8354 13.0483 15.7523 12.8995 15.6042C12.7507 15.456 12.6669 15.2548 12.6665 15.0448V13.9888V11.875Z" fill="#455A64"/>
<path d="M8.70524 11.0849C8.49528 11.0849 8.29391 11.1683 8.14545 11.3168C7.99698 11.4653 7.91357 11.6666 7.91357 11.8766V15.0433C7.91357 15.2532 7.99698 15.4546 8.14545 15.6031C8.29391 15.7515 8.49528 15.8349 8.70524 15.8349H9.50007C10.13 15.8349 10.7341 15.5847 11.1795 15.1393C11.6249 14.6939 11.8751 14.0898 11.8751 13.4599C11.8751 12.83 11.6249 12.226 11.1795 11.7806C10.7341 11.3352 10.13 11.0849 9.50007 11.0849H8.70524ZM9.49691 14.2516V12.6683H9.50007C9.71004 12.6683 9.9114 12.7517 10.0599 12.9001C10.2083 13.0486 10.2917 13.25 10.2917 13.4599C10.2917 13.6699 10.2083 13.8713 10.0599 14.0197C9.9114 14.1682 9.71004 14.2516 9.50007 14.2516H9.49691Z" fill="#455A64"/>
<path d="M1.58333 2.375V8.0465C1.11983 8.21037 0.718603 8.51404 0.435005 8.91562C0.151407 9.31719 -0.000583691 9.79688 1.68454e-06 10.2885V16.6266C1.68454e-06 17.2565 0.250224 17.8606 0.695623 18.306C1.14102 18.7514 1.74511 19.0016 2.375 19.0016H16.625C17.2549 19.0016 17.859 18.7514 18.3044 18.306C18.7498 17.8606 19 17.2565 19 16.6266V10.2869C19.0003 9.79557 18.8481 9.31623 18.5645 8.91497C18.281 8.51371 17.8799 8.21028 17.4167 8.0465V5.40233C17.417 5.08975 17.3557 4.78017 17.2361 4.49135C17.1166 4.20252 16.9412 3.94014 16.72 3.71925L13.6863 0.695083C13.2411 0.250138 12.6375 0.000134395 12.008 0H3.95833C3.32845 0 2.72436 0.250222 2.27896 0.695621C1.83356 1.14102 1.58333 1.74511 1.58333 2.375ZM3.95833 1.58333H11.0833V3.95517C11.0833 4.58506 11.3336 5.18915 11.779 5.63455C12.2244 6.07994 12.8284 6.33017 13.4583 6.33017H15.8333V7.91192H3.16667V2.375C3.16667 2.16504 3.25008 1.96367 3.39854 1.81521C3.54701 1.66674 3.74837 1.58333 3.95833 1.58333ZM12.6667 1.91267L15.5072 4.74683H13.4583C13.2484 4.74683 13.047 4.66343 12.8985 4.51496C12.7501 4.36649 12.6667 4.16513 12.6667 3.95517V1.91267ZM2.375 9.49683H16.625C16.835 9.49683 17.0363 9.58024 17.1848 9.72871C17.3333 9.87717 17.4167 10.0785 17.4167 10.2885V16.6266C17.4167 16.8365 17.3333 17.0379 17.1848 17.1864C17.0363 17.3348 16.835 17.4183 16.625 17.4183H2.375C2.16504 17.4183 1.96368 17.3348 1.81521 17.1864C1.66674 17.0379 1.58333 16.8365 1.58333 16.6266V10.2869C1.58333 10.077 1.66674 9.87559 1.81521 9.72712C1.96368 9.57866 2.16504 9.49525 2.375 9.49525V9.49683Z" fill="#455A64"/>
</svg>
