<svg width="4" height="17" viewBox="0 0 4 17" fill="none" xmlns="http://www.w3.org/2000/svg">
<path d="M2.15006 16.4943C1.73084 16.5012 1.40529 16.3835 1.1734 16.1412C0.941442 15.8944 0.821557 15.534 0.813749 15.0601C0.806318 14.609 0.914529 14.2608 1.13838 14.0156C1.36224 13.7703 1.68377 13.6442 2.10299 13.6373C2.51309 13.6306 2.8364 13.7506 3.07292 13.9974C3.3048 14.2397 3.42435 14.5795 3.43156 15.017C3.43899 15.4681 3.33093 15.8254 3.10737 16.0889C2.88382 16.3524 2.56471 16.4875 2.15006 16.4943ZM2.04188 9.92836C1.62267 9.93526 1.29712 9.81756 1.06523 9.57526C0.833269 9.32839 0.713384 8.96801 0.705577 8.49412C0.698145 8.04301 0.806357 7.69483 1.03021 7.44957C1.25407 7.20431 1.5756 7.07823 1.99481 7.07132C2.40492 7.06457 2.72823 7.18458 2.96474 7.43137C3.19663 7.67368 3.31618 8.01355 3.32339 8.45099C3.33082 8.9021 3.22276 9.2594 2.9992 9.52288C2.77565 9.78637 2.45654 9.92153 2.04188 9.92836ZM1.93371 3.36237C1.5145 3.36928 1.18895 3.25158 0.957059 3.00927C0.725097 2.76241 0.605212 2.40203 0.597404 1.92814C0.589973 1.47703 0.698184 1.12884 0.922039 0.883585C1.14589 0.638327 1.46743 0.512246 1.88664 0.505339C2.29674 0.498583 2.62005 0.618599 2.85657 0.865388C3.08846 1.10769 3.20801 1.44757 3.21521 1.88501C3.22265 2.33612 3.11458 2.69342 2.89103 2.9569C2.66747 3.22038 2.34837 3.35554 1.93371 3.36237Z" fill="#304FFE"/>
</svg>
