<svg width="36" height="39" viewBox="0 0 36 39" fill="none" xmlns="http://www.w3.org/2000/svg">
<g filter="url(#filter0_d)">
<circle cx="18" cy="17" r="17" fill="white"/>
<circle cx="18" cy="17" r="16.5" stroke="#304FFE"/>
</g>
<path d="M13.5556 15H15.3333V17H13.5556V15ZM26 10V24C26 25.1 25.2 26 24.2222 26H11.7778C11.3063 26 10.8541 25.7893 10.5207 25.4142C10.1873 25.0391 10 24.5304 10 24L10.0089 10C10.0089 8.9 10.7911 8 11.7778 8H12.6667V6H14.4444V8H21.5556V6H23.3333V8H24.2222C25.2 8 26 8.9 26 10ZM11.7778 12H24.2222V10H11.7778V12ZM24.2222 24V14H11.7778V24H24.2222ZM20.6667 17H22.4444V15H20.6667V17ZM17.1111 17H18.8889V15H17.1111V17Z" fill="#304FFE"/>
<defs>
<filter id="filter0_d" x="0" y="0" width="36" height="39" filterUnits="userSpaceOnUse" color-interpolation-filters="sRGB">
<feFlood flood-opacity="0" result="BackgroundImageFix"/>
<feColorMatrix in="SourceAlpha" type="matrix" values="0 0 0 0 0 0 0 0 0 0 0 0 0 0 0 0 0 0 127 0"/>
<feMorphology radius="3" operator="erode" in="SourceAlpha" result="effect1_dropShadow"/>
<feOffset dy="4"/>
<feGaussianBlur stdDeviation="2"/>
<feColorMatrix type="matrix" values="0 0 0 0 0 0 0 0 0 0 0 0 0 0 0 0 0 0 0.2 0"/>
<feBlend mode="normal" in2="BackgroundImageFix" result="effect1_dropShadow"/>
<feBlend mode="normal" in="SourceGraphic" in2="effect1_dropShadow" result="shape"/>
</filter>
</defs>
</svg>
