<svg width="122" height="30" viewBox="0 0 122 30" fill="none" xmlns="http://www.w3.org/2000/svg">
<rect width="122" height="30" rx="15" fill="#304FFE"/>
<circle cx="16.3334" cy="14.4118" r="11.5294" fill="#1C35C2"/>
<path d="M39.0938 8.57812H40.5234L36.4062 20H35.0938L31 8.57812H32.4062L35.0312 15.9688C35.3333 16.8177 35.5729 17.6432 35.75 18.4453C35.9375 17.6016 36.1823 16.7604 36.4844 15.9219L39.0938 8.57812ZM45.5234 20.1562C44.2578 20.1562 43.2578 19.7708 42.5234 19C41.7943 18.2292 41.4297 17.1589 41.4297 15.7891C41.4297 14.4089 41.7682 13.3125 42.4453 12.5C43.1276 11.6875 44.0417 11.2812 45.1875 11.2812C46.2604 11.2812 47.1094 11.6354 47.7344 12.3438C48.3594 13.0469 48.6719 13.9766 48.6719 15.1328V15.9531H42.7734C42.7995 16.9583 43.0521 17.7214 43.5312 18.2422C44.0156 18.763 44.6953 19.0234 45.5703 19.0234C46.4922 19.0234 47.4036 18.8307 48.3047 18.4453V19.6016C47.8464 19.7995 47.4115 19.9401 47 20.0234C46.5938 20.112 46.1016 20.1562 45.5234 20.1562ZM45.1719 12.3672C44.4844 12.3672 43.9349 12.5911 43.5234 13.0391C43.1172 13.487 42.8776 14.1068 42.8047 14.8984H47.2812C47.2812 14.0807 47.099 13.4557 46.7344 13.0234C46.3698 12.5859 45.849 12.3672 45.1719 12.3672ZM54.7969 11.2812C55.1771 11.2812 55.5182 11.3125 55.8203 11.375L55.6406 12.5781C55.2865 12.5 54.974 12.4609 54.7031 12.4609C54.0104 12.4609 53.4167 12.7422 52.9219 13.3047C52.4323 13.8672 52.1875 14.5677 52.1875 15.4062V20H50.8906V11.4375H51.9609L52.1094 13.0234H52.1719C52.4896 12.4661 52.8724 12.0365 53.3203 11.7344C53.7682 11.4323 54.2604 11.2812 54.7969 11.2812ZM65 20.1562C63.7604 20.1562 62.7995 19.776 62.1172 19.0156C61.4401 18.25 61.1016 17.1693 61.1016 15.7734C61.1016 14.3411 61.4453 13.2344 62.1328 12.4531C62.8255 11.6719 63.8099 11.2812 65.0859 11.2812C65.4974 11.2812 65.9089 11.3255 66.3203 11.4141C66.7318 11.5026 67.0547 11.6068 67.2891 11.7266L66.8906 12.8281C66.6042 12.7135 66.2917 12.6198 65.9531 12.5469C65.6146 12.4688 65.3151 12.4297 65.0547 12.4297C63.3151 12.4297 62.4453 13.5391 62.4453 15.7578C62.4453 16.8099 62.6562 17.6172 63.0781 18.1797C63.5052 18.7422 64.1354 19.0234 64.9688 19.0234C65.6823 19.0234 66.4141 18.8698 67.1641 18.5625V19.7109C66.5911 20.0078 65.8698 20.1562 65 20.1562ZM70.5 20H69.2031V7.84375H70.5V20ZM74.5469 20H73.25V11.4375H74.5469V20ZM73.1406 9.11719C73.1406 8.82031 73.2135 8.60417 73.3594 8.46875C73.5052 8.32812 73.6875 8.25781 73.9062 8.25781C74.1146 8.25781 74.2943 8.32812 74.4453 8.46875C74.5964 8.60938 74.6719 8.82552 74.6719 9.11719C74.6719 9.40885 74.5964 9.6276 74.4453 9.77344C74.2943 9.91406 74.1146 9.98438 73.9062 9.98438C73.6875 9.98438 73.5052 9.91406 73.3594 9.77344C73.2135 9.6276 73.1406 9.40885 73.1406 9.11719ZM80.9141 20.1562C79.6484 20.1562 78.6484 19.7708 77.9141 19C77.1849 18.2292 76.8203 17.1589 76.8203 15.7891C76.8203 14.4089 77.1589 13.3125 77.8359 12.5C78.5182 11.6875 79.4323 11.2812 80.5781 11.2812C81.651 11.2812 82.5 11.6354 83.125 12.3438C83.75 13.0469 84.0625 13.9766 84.0625 15.1328V15.9531H78.1641C78.1901 16.9583 78.4427 17.7214 78.9219 18.2422C79.4062 18.763 80.0859 19.0234 80.9609 19.0234C81.8828 19.0234 82.7943 18.8307 83.6953 18.4453V19.6016C83.237 19.7995 82.8021 19.9401 82.3906 20.0234C81.9844 20.112 81.4922 20.1562 80.9141 20.1562ZM80.5625 12.3672C79.875 12.3672 79.3255 12.5911 78.9141 13.0391C78.5078 13.487 78.2682 14.1068 78.1953 14.8984H82.6719C82.6719 14.0807 82.4896 13.4557 82.125 13.0234C81.7604 12.5859 81.2396 12.3672 80.5625 12.3672ZM92.1406 20V14.4609C92.1406 13.763 91.9818 13.2422 91.6641 12.8984C91.3464 12.5547 90.849 12.3828 90.1719 12.3828C89.276 12.3828 88.6198 12.625 88.2031 13.1094C87.7865 13.5938 87.5781 14.3932 87.5781 15.5078V20H86.2812V11.4375H87.3359L87.5469 12.6094H87.6094C87.875 12.1875 88.2474 11.862 88.7266 11.6328C89.2057 11.3984 89.7396 11.2812 90.3281 11.2812C91.3594 11.2812 92.1354 11.5312 92.6562 12.0312C93.1771 12.526 93.4375 13.3203 93.4375 14.4141V20H92.1406ZM98.875 19.0859C99.1042 19.0859 99.3255 19.0703 99.5391 19.0391C99.7526 19.0026 99.9219 18.9661 100.047 18.9297V19.9219C99.9062 19.9896 99.6979 20.0443 99.4219 20.0859C99.151 20.1328 98.9062 20.1562 98.6875 20.1562C97.0312 20.1562 96.2031 19.2839 96.2031 17.5391V12.4453H94.9766V11.8203L96.2031 11.2812L96.75 9.45312H97.5V11.4375H99.9844V12.4453H97.5V17.4844C97.5 18 97.6224 18.3958 97.8672 18.6719C98.112 18.9479 98.4479 19.0859 98.875 19.0859ZM105.383 20.1562C104.117 20.1562 103.117 19.7708 102.383 19C101.654 18.2292 101.289 17.1589 101.289 15.7891C101.289 14.4089 101.628 13.3125 102.305 12.5C102.987 11.6875 103.901 11.2812 105.047 11.2812C106.12 11.2812 106.969 11.6354 107.594 12.3438C108.219 13.0469 108.531 13.9766 108.531 15.1328V15.9531H102.633C102.659 16.9583 102.911 17.7214 103.391 18.2422C103.875 18.763 104.555 19.0234 105.43 19.0234C106.352 19.0234 107.263 18.8307 108.164 18.4453V19.6016C107.706 19.7995 107.271 19.9401 106.859 20.0234C106.453 20.112 105.961 20.1562 105.383 20.1562ZM105.031 12.3672C104.344 12.3672 103.794 12.5911 103.383 13.0391C102.977 13.487 102.737 14.1068 102.664 14.8984H107.141C107.141 14.0807 106.958 13.4557 106.594 13.0234C106.229 12.5859 105.708 12.3672 105.031 12.3672Z" fill="#F8F9FF"/>
<path fill-rule="evenodd" clip-rule="evenodd" d="M9.00008 14.5006C9.00008 14.368 9.05276 14.2408 9.14653 14.1471C9.2403 14.0533 9.36747 14.0006 9.50008 14.0006H21.2931L18.1461 10.8546C18.0996 10.8081 18.0627 10.753 18.0376 10.6922C18.0124 10.6315 17.9995 10.5664 17.9995 10.5006C17.9995 10.4349 18.0124 10.3698 18.0376 10.309C18.0627 10.2483 18.0996 10.1931 18.1461 10.1466C18.1926 10.1001 18.2478 10.0633 18.3085 10.0381C18.3692 10.0129 18.4343 10 18.5001 10C18.5658 10 18.6309 10.0129 18.6917 10.0381C18.7524 10.0633 18.8076 10.1001 18.8541 10.1466L22.8541 14.1466C22.9006 14.1931 22.9376 14.2483 22.9628 14.309C22.988 14.3697 23.001 14.4349 23.001 14.5006C23.001 14.5664 22.988 14.6315 22.9628 14.6923C22.9376 14.753 22.9006 14.8082 22.8541 14.8546L18.8541 18.8546C18.8076 18.9011 18.7524 18.938 18.6917 18.9632C18.6309 18.9883 18.5658 19.0013 18.5001 19.0013C18.4343 19.0013 18.3692 18.9883 18.3085 18.9632C18.2478 18.938 18.1926 18.9011 18.1461 18.8546C18.0996 18.8081 18.0627 18.753 18.0376 18.6922C18.0124 18.6315 17.9995 18.5664 17.9995 18.5006C17.9995 18.4349 18.0124 18.3698 18.0376 18.309C18.0627 18.2483 18.0996 18.1931 18.1461 18.1466L21.2931 15.0006H9.50008C9.36747 15.0006 9.2403 14.948 9.14653 14.8542C9.05276 14.7604 9.00008 14.6332 9.00008 14.5006Z" fill="#F8F9FF"/>
</svg>
