<svg width="30" height="29" viewBox="0 0 30 29" fill="none" xmlns="http://www.w3.org/2000/svg">
<path d="M15 1.8125C7.6875 1.8125 1.875 7.43125 1.875 14.5C1.875 21.5688 7.6875 27.1875 15 27.1875C22.3125 27.1875 28.125 21.5688 28.125 14.5C28.125 7.43125 22.3125 1.8125 15 1.8125ZM15 25.375C8.8125 25.375 3.75 20.4813 3.75 14.5C3.75 8.51875 8.8125 3.625 15 3.625C21.1875 3.625 26.25 8.51875 26.25 14.5C26.25 20.4813 21.1875 25.375 15 25.375Z" fill="#E41616"/>
<path d="M20.0625 20.8438L15 15.95L9.9375 20.8438L8.4375 19.3937L13.5 14.5L8.4375 9.60625L9.9375 8.15625L15 13.05L20.0625 8.15625L21.5625 9.60625L16.5 14.5L21.5625 19.3937L20.0625 20.8438Z" fill="#E41616"/>
</svg>
